<svg xmlns="http://www.w3.org/2000/svg" width="27" height="28" viewBox="0 0 27 28">
    <g fill="#AAB2BC" fill-rule="nonzero">
        <path d="M21.434 5.48c0-.266-.22-.48-.492-.48H9.03C7.357 5 6 6.329 6 7.958v13.084C6 22.675 7.361 24 9.03 24h11.916a.485.485 0 0 0 .492-.48V10.44c0-.264-.22-.479-.492-.479H9.03c-1.13 0-2.052-.9-2.052-2.003 0-1.103.922-2.003 2.052-2.003h11.916a.483.483 0 0 0 .488-.476zM9.03 10.915h11.425v12.13H9.03c-1.13 0-2.052-.901-2.052-2.004v-10.91a3.052 3.052 0 0 0 2.052.784z"/>
        <path d="M8.854 7.375c-.265 0-.479.265-.479.594 0 .328.214.593.48.593H19.77c.265 0 .479-.265.479-.593 0-.329-.214-.594-.48-.594H8.855zM11.069 20.404c.254.1.54-.03.637-.296l.722-1.953h2.53c.02 0 .035-.004.052-.004l.722 1.957c.076.204.262.33.46.33.06 0 .116-.013.177-.034a.518.518 0 0 0 .286-.66l-2.178-5.89a.808.808 0 0 0-.758-.542.808.808 0 0 0-.759.543l-2.178 5.89a.52.52 0 0 0 .287.659zm2.65-5.744l.915 2.473h-1.827l.912-2.473z"/>
    </g>
</svg>
