<svg xmlns="http://www.w3.org/2000/svg" width="26" height="25" viewBox="0 0 26 25">
    <g fill="#5C6672" fill-rule="nonzero">
        <path d="M21.386 4.731h-3.948v-.644A2.09 2.09 0 0 0 15.35 2h-3.754A2.09 2.09 0 0 0 9.51 4.087v.644H5.562a.525.525 0 0 0-.527.527c0 .292.234.526.527.526h.952V18.16a2.82 2.82 0 0 0 2.817 2.817h8.286a2.82 2.82 0 0 0 2.817-2.817V5.784h.952a.525.525 0 0 0 .527-.526.525.525 0 0 0-.527-.527zm-10.823-.644c0-.57.465-1.034 1.034-1.034h3.754c.57 0 1.033.465 1.033 1.034v.644h-5.82v-.644zm8.818 14.073c0 .971-.792 1.763-1.764 1.763H9.331a1.767 1.767 0 0 1-1.764-1.763V5.784h11.818V18.16h-.004z"/>
        <path d="M13.474 18.035a.525.525 0 0 0 .527-.527V8.2a.525.525 0 0 0-.527-.526.525.525 0 0 0-.527.526v9.305c0 .293.234.53.527.53zM10.037 17.454a.525.525 0 0 0 .526-.527v-8.15a.525.525 0 0 0-.526-.527.525.525 0 0 0-.527.527v8.15c0 .293.238.527.527.527zM16.911 17.454a.525.525 0 0 0 .527-.527v-8.15a.525.525 0 0 0-.527-.527.525.525 0 0 0-.527.527v8.15c0 .293.234.527.527.527z"/>
    </g>
</svg>
