<svg xmlns="http://www.w3.org/2000/svg" width="24" height="28" viewBox="0 0 24 28">
    <g fill="#AAB2BC" fill-rule="nonzero">
        <path d="M15.345 8.318h-8.82a1.5 1.5 0 0 0-1.5 1.5v12.655a1.5 1.5 0 0 0 1.5 1.5h8.82a1.5 1.5 0 0 0 1.5-1.5V9.818a1.506 1.506 0 0 0-1.5-1.5zm.447 14.151c0 .249-.202.45-.45.45h-8.82a.451.451 0 0 1-.452-.45V9.818c0-.249.202-.45.451-.45h8.82c.249 0 .45.201.45.45v12.651z"/>
        <path d="M18.718 5h-8.82a1.5 1.5 0 0 0-1.5 1.5c0 .291.233.524.524.524a.522.522 0 0 0 .525-.524c0-.249.202-.45.45-.45h8.82c.25 0 .451.201.451.45v12.655c0 .248-.202.45-.45.45a.522.522 0 0 0-.525.525c0 .291.233.525.525.525a1.5 1.5 0 0 0 1.5-1.5V6.5a1.5 1.5 0 0 0-1.5-1.5z"/>
    </g>
</svg>
