<svg xmlns="http://www.w3.org/2000/svg" width="20" height="28" viewBox="0 0 20 28">
    <path fill="#AAB2BC" fill-rule="evenodd" d="M11.206 17.74H9.272v-.987c0-.357.034-.679.102-.967.07-.288.169-.549.299-.782.13-.233.288-.456.473-.669.185-.212.394-.428.628-.648l.761-.72c.302-.26.552-.545.751-.854.199-.308.298-.703.298-1.183 0-.658-.209-1.183-.627-1.574-.419-.391-.957-.586-1.615-.586-.686 0-1.235.219-1.647.658a2.708 2.708 0 0 0-.72 1.605L6 10.807a4.59 4.59 0 0 1 .514-1.595 4.21 4.21 0 0 1 .978-1.204c.39-.329.84-.58 1.348-.75A5.045 5.045 0 0 1 10.465 7c.576 0 1.115.082 1.615.247.5.165.943.408 1.327.73.384.323.686.72.906 1.194.22.473.329 1.018.329 1.636 0 .439-.048.823-.144 1.152-.096.33-.23.627-.401.895a4.01 4.01 0 0 1-.628.75c-.247.234-.514.474-.802.721-.275.233-.508.442-.7.628a2.56 2.56 0 0 0-.453.566 2.15 2.15 0 0 0-.236.637 4.375 4.375 0 0 0-.072.865v.72zm.514 2.902c0 .357-.13.672-.39.946-.261.275-.59.412-.988.412a1.33 1.33 0 0 1-.978-.401 1.283 1.283 0 0 1-.401-.936c0-.37.13-.69.39-.957.262-.268.59-.401.989-.401.397 0 .727.13.987.39.26.261.391.577.391.947z"/>
</svg>
