<svg xmlns="http://www.w3.org/2000/svg" width="20" height="19" viewBox="0 0 20 19">
    <path fill="#FF4F54" fill-rule="nonzero" d="M19.815 8.573L10.404.193a.264.264 0 0 0-.054-.04.558.558 0 0 0-.753-.013L.185 8.52a.554.554 0 1 0 .74.827l1.696-1.512v9.773c0 .765.625 1.392 1.398 1.392H6.99a1.31 1.31 0 0 0 1.312-1.306v-4.968c0-.111.091-.201.202-.201h2.999c.11 0 .201.09.201.2v4.969c0 .72.589 1.306 1.313 1.306h2.97c.781 0 1.398-.766 1.398-1.745V7.89L19.08 9.4a.558.558 0 0 0 .786-.045.562.562 0 0 0-.05-.782zm-3.546 2.731v5.943c0 .397-.197.639-.287.639h-2.97a.201.201 0 0 1-.202-.2v-4.96a1.31 1.31 0 0 0-1.312-1.307h-3a1.31 1.31 0 0 0-1.311 1.307v4.968c0 .11-.09.2-.202.2H4.015a.288.288 0 0 1-.288-.286V6.844l6.245-5.553 6.297 5.607v4.406z"/>
</svg>
