<svg xmlns="http://www.w3.org/2000/svg" width="28" height="28" viewBox="0 0 28 28">
    <g fill="#AAB2BC" fill-rule="nonzero">
        <path d="M5 21.976c0 1.105.9 2 2 2h14.976c1.105 0 2-.899 2-2V7c0-1.105-.899-2.001-2-2.001H7C5.896 5 5 5.9 5 7v14.976zm16.976 1.05H7c-.578 0-1.051-.472-1.051-1.05v-2.501l3.598-3.598 3.075 3.074a.473.473 0 0 0 .671 0l5.553-5.552 4.18 4.18v4.397c0 .578-.473 1.05-1.051 1.05zM7 5.95h14.975c.578 0 1.05.473 1.05 1.05v9.233l-3.846-3.842a.473.473 0 0 0-.67 0l-5.553 5.552-3.075-3.075a.473.473 0 0 0-.671 0L5.95 18.13V7.001c0-.578.473-1.051 1.05-1.051z"/>
        <path d="M10.882 12.604a2.419 2.419 0 0 0 2.416-2.416 2.421 2.421 0 0 0-2.416-2.416 2.421 2.421 0 0 0-2.415 2.416 2.419 2.419 0 0 0 2.415 2.416zm0-3.882c.81 0 1.466.66 1.466 1.466a1.47 1.47 0 0 1-1.466 1.466 1.47 1.47 0 0 1-1.465-1.466c0-.806.655-1.466 1.465-1.466z"/>
    </g>
</svg>
