<svg xmlns="http://www.w3.org/2000/svg" width="39" height="20" viewBox="0 0 39 20">
    <g fill="#5C6672" fill-rule="nonzero">
        <path d="M23.225 11a2.979 2.979 0 0 0-2.975-2.975A2.979 2.979 0 0 0 17.275 11a2.979 2.979 0 0 0 2.975 2.975A2.979 2.979 0 0 0 23.225 11zm-2.975 1.75c-.965 0-1.75-.785-1.75-1.75s.785-1.75 1.75-1.75S22 10.035 22 11s-.785 1.75-1.75 1.75zM10.975 8.025A2.979 2.979 0 0 0 8 11a2.979 2.979 0 0 0 2.975 2.975A2.979 2.979 0 0 0 13.95 11a2.979 2.979 0 0 0-2.975-2.975zm0 4.725c-.965 0-1.75-.785-1.75-1.75s.785-1.75 1.75-1.75 1.75.785 1.75 1.75-.785 1.75-1.75 1.75zM29.525 8.025A2.979 2.979 0 0 0 26.55 11a2.979 2.979 0 0 0 2.975 2.975A2.979 2.979 0 0 0 32.5 11a2.979 2.979 0 0 0-2.975-2.975zm0 4.725c-.965 0-1.75-.785-1.75-1.75s.785-1.75 1.75-1.75 1.75.785 1.75 1.75-.785 1.75-1.75 1.75z"/>
    </g>
</svg>
