<svg xmlns="http://www.w3.org/2000/svg" width="25" height="25" viewBox="0 0 25 25">
    <g fill="#5C6672" fill-rule="nonzero">
        <path d="M20.57 19.991a.43.43 0 0 0 .43-.43V6.975a.428.428 0 0 0-.15-.325L16.698 3.1a.073.073 0 0 0-.021-.014l-.028-.021-.039-.021-.031-.014c-.014-.007-.032-.01-.046-.014-.01-.004-.02-.007-.031-.007-.028-.004-.053-.007-.08-.007H4.43a.43.43 0 0 0-.43.43v16.136c0 .238.192.43.43.43h16.14v-.007zm-3.12-.857h-9.9v-6.44c0-.129.105-.23.231-.23h9.438c.13 0 .23.105.23.23v6.44zM9.66 3.855h6.327v4.47a.048.048 0 0 1-.049.05H9.712a.05.05 0 0 1-.049-.05v-4.47H9.66zm-4.8 0h3.946v4.47c0 .5.406.907.906.907h6.226c.5 0 .906-.406.906-.906v-3.97l3.296 2.819v11.96h-1.833v-6.44c0-.602-.49-1.088-1.088-1.088H7.78c-.601 0-1.088.49-1.088 1.088v6.443H4.86V3.855z"/>
        <path d="M11.954 5.716h1.882v1.14a.43.43 0 1 0 .86 0V5.29a.43.43 0 0 0-.43-.43h-2.312a.43.43 0 0 0 0 .857zM14.651 14.293H10.35a.43.43 0 1 0 0 .86h4.302a.43.43 0 1 0 0-.86zM14.651 16.563H10.35a.43.43 0 1 0 0 .86h4.302a.43.43 0 1 0 0-.86z"/>
    </g>
</svg>
