<svg xmlns="http://www.w3.org/2000/svg" width="28" height="25" viewBox="0 0 28 25">
    <path fill="#323C48" fill-rule="nonzero" d="M5 10.066c0 3.897 3.17 7.064 7.064 7.064a7.044 7.044 0 0 0 4.683-1.78l4.502 4.502a.423.423 0 0 0 .303.125.424.424 0 0 0 .302-.727l-4.506-4.501a7.038 7.038 0 0 0 1.78-4.683c0-3.897-3.17-7.064-7.064-7.064C8.171 3.002 5 6.169 5 10.066zm13.277 0a6.221 6.221 0 0 1-6.213 6.212 6.221 6.221 0 0 1-6.212-6.212 6.221 6.221 0 0 1 6.212-6.213 6.219 6.219 0 0 1 6.213 6.213z"/>
</svg>
